<svg width="82" height="91" viewBox="0 0 82 91" fill="none" xmlns="http://www.w3.org/2000/svg">
<path d="M81.4268 26.9683C81.4262 25.455 81.1008 24.1178 80.4426 22.9702C79.7961 21.8416 78.8279 20.8958 77.5293 20.1479C66.8094 14.0011 56.0792 7.87318 45.3629 1.72015C42.4738 0.0615049 39.6726 0.121973 36.805 1.80443C32.5381 4.30681 11.1757 16.4778 4.80994 20.1445C2.18835 21.6537 0.912685 23.9634 0.912055 26.9655C0.907959 39.327 0.912055 51.6882 0.907959 64.05C0.908589 65.5301 1.22018 66.8413 1.84935 67.9717C2.49616 69.1343 3.47788 70.1062 4.80648 70.871C11.1725 74.5376 32.5378 86.7077 36.8037 89.2107C39.6726 90.8941 42.4738 90.9543 45.3638 89.295C56.0805 83.1417 66.8113 77.014 77.5327 70.8672C78.8613 70.1028 79.843 69.1303 80.4899 67.9685C81.1181 66.8381 81.4303 65.5269 81.4309 64.0466C81.4309 64.0466 81.4309 39.3301 81.4268 26.9683Z" fill="#5C8DBC"/>
<path d="M41.2925 45.3896L1.84918 67.9741C2.496 69.1368 3.47771 70.1086 4.80631 70.8734C11.1724 74.54 32.5377 86.7101 36.8036 89.2132C39.6725 90.8966 42.4737 90.9567 45.3637 89.2974C56.0804 83.1441 66.8112 77.0164 77.5326 70.8697C78.8612 70.1052 79.843 69.1327 80.4898 67.9709L41.2925 45.3896Z" fill="#1A4674"/>
<path d="M29.6077 52.0793C31.9029 56.0639 36.2176 58.7515 41.1672 58.7515C46.1473 58.7515 50.4865 56.0298 52.7701 52.0026L41.2903 45.3896L29.6077 52.0793Z" fill="#1A4674"/>
<path d="M81.4247 26.9698C81.4241 25.4565 81.0986 24.1193 80.4405 22.9717L41.2905 45.3888L80.4878 67.9701C81.116 66.8397 81.4282 65.5285 81.4288 64.0482C81.4288 64.0482 81.4288 39.3317 81.4247 26.9698Z" fill="#1B598E"/>
<path d="M79.2735 46.9988H76.2105V50.0454H73.1469V46.9988H70.0843V43.9532H73.1469V40.9072H76.2105V43.9532H79.2735V46.9988ZM68.0969 46.9988H65.0342V50.0454H61.9712V46.9988H58.9083V43.9532H61.9712V40.9072H65.0342V43.9532H68.0969V46.9988Z" fill="white"/>
<path d="M52.7751 52.0003C50.4916 56.0275 46.1523 58.7492 41.1722 58.7492C36.2226 58.7492 31.9079 56.0617 29.6127 52.0771C28.4597 50.0776 27.8542 47.8125 27.8566 45.5076C27.8566 38.1947 33.8184 32.2663 41.1722 32.2663C46.0899 32.2663 50.3819 34.9204 52.6885 38.8643L64.327 32.1996C59.701 24.2585 51.0643 18.916 41.1722 18.916C26.4035 18.916 14.4317 30.8217 14.4317 45.5076C14.4317 50.3257 15.7206 54.8439 17.9732 58.7411C22.5876 66.7242 31.2488 72.0996 41.1722 72.0996C51.1138 72.0996 59.7886 66.7025 64.3963 58.696L52.7751 52.0003Z" fill="white"/>
</svg>
