<svg width="82" height="91" viewBox="0 0 82 91" fill="none" xmlns="http://www.w3.org/2000/svg">
<g clip-path="url(#clip0_813_57)">
<path d="M81.458 26.9682C81.4574 25.4549 81.1319 24.1177 80.4738 22.9704C79.8273 21.8415 78.8591 20.8957 77.5604 20.1478C66.8406 14.001 56.1104 7.87304 45.3941 1.72C42.505 0.0613533 39.7038 0.122135 36.8362 1.80459C32.5694 4.30666 11.2069 16.4777 4.84119 20.1443C2.2196 21.6539 0.943935 23.9636 0.943305 26.9654C0.939209 39.3269 0.943305 51.6884 0.939209 64.0499C0.939209 65.53 1.25143 66.8415 1.8806 67.9716C2.52741 69.1343 3.50913 70.1062 4.83772 70.871C11.2038 74.5376 32.569 86.7077 36.8349 89.2107C39.7038 90.8941 42.505 90.9543 45.395 89.2953C56.1117 83.1419 66.8425 77.014 77.5639 70.8672C78.8925 70.1027 79.8742 69.1302 80.521 67.9685C81.1492 66.8381 81.4621 65.5269 81.4621 64.0465C81.4621 64.0465 81.4621 39.33 81.458 26.9682Z" fill="#A179DC"/>
<path d="M41.3246 45.3889L1.88135 67.9733C2.52816 69.136 3.50988 70.1079 4.83847 70.8727C11.2045 74.5393 32.5698 86.7094 36.8357 89.2124C39.7046 90.8958 42.5057 90.956 45.3957 89.297C56.1124 83.1437 66.8432 77.0157 77.5646 70.8689C78.8932 70.1044 79.8749 69.1319 80.5218 67.9702L41.3246 45.3889Z" fill="#280068"/>
<path d="M81.4554 26.9678C81.4547 25.4545 81.1293 24.1173 80.4711 22.97L41.3212 45.3871L80.5184 67.9682C81.1466 66.8377 81.4588 65.5266 81.4595 64.0462C81.4595 64.0462 81.4595 39.3296 81.4554 26.9678Z" fill="#390091"/>
<path d="M64.5466 36.9417V41.1631H68.7917V36.9417H70.9143V41.1631H75.1594V43.2738H70.9143V47.495H75.1594V49.6058H70.9143V53.8273H68.7917V49.6058H64.5466V53.8273H62.4241V49.6058H58.1793V47.495H62.4241V43.2738H58.1793V41.1631H62.4241V36.9417H64.5466ZM68.7917 43.2736H64.5466V47.495H68.7917V43.2736Z" fill="white"/>
<path d="M41.409 15.743C52.4813 15.743 62.1482 21.7228 67.3262 30.6113L67.2758 30.5258L54.2481 37.985C51.6816 33.6635 46.9767 30.747 41.5788 30.6868L41.4086 30.6859C33.1777 30.6859 26.5049 37.3217 26.5049 45.5069C26.5022 48.0867 27.1799 50.6222 28.4704 52.8602C31.0394 57.3201 35.869 60.3282 41.409 60.3282C46.9833 60.3282 51.8402 57.2819 54.3959 52.7743L54.3339 52.8824L67.3415 60.3761C62.2203 69.1894 52.6857 75.1507 41.7422 75.2695L41.409 75.2714C30.3016 75.2714 20.6072 69.2546 15.4422 60.3191C12.9208 55.9569 11.4781 50.8998 11.4781 45.5069C11.4781 29.0689 24.8786 15.743 41.409 15.743Z" fill="white"/>
</g>
<defs>
<clipPath id="clip0_813_57">
<rect width="82" height="91" fill="white"/>
</clipPath>
</defs>
</svg>
