<svg width="121" height="91" viewBox="0 0 121 91" fill="none" xmlns="http://www.w3.org/2000/svg">
<g clip-path="url(#clip0_802_974)">
<g clip-path="url(#clip1_802_974)">
<path d="M45.7007 90.5088C54.0007 90.5088 60.7007 83.8088 60.7007 75.5088V60.5088H45.7007C37.4007 60.5088 30.7007 67.2088 30.7007 75.5088C30.7007 83.8088 37.4007 90.5088 45.7007 90.5088Z" fill="#0ACF83"/>
<path d="M30.7007 45.5088C30.7007 37.2088 37.4007 30.5088 45.7007 30.5088H60.7007V60.5088H45.7007C37.4007 60.5088 30.7007 53.8088 30.7007 45.5088Z" fill="#A259FF"/>
<path d="M30.7007 15.5088C30.7007 7.20879 37.4007 0.508789 45.7007 0.508789H60.7007V30.5088H45.7007C37.4007 30.5088 30.7007 23.8088 30.7007 15.5088Z" fill="#F24E1E"/>
<path d="M60.7007 0.508789H75.7007C84.0007 0.508789 90.7007 7.20879 90.7007 15.5088C90.7007 23.8088 84.0007 30.5088 75.7007 30.5088H60.7007V0.508789Z" fill="#FF7262"/>
<path d="M90.7007 45.5088C90.7007 53.8088 84.0007 60.5088 75.7007 60.5088C67.4007 60.5088 60.7007 53.8088 60.7007 45.5088C60.7007 37.2088 67.4007 30.5088 75.7007 30.5088C84.0007 30.5088 90.7007 37.2088 90.7007 45.5088Z" fill="#1ABCFE"/>
</g>
</g>
<defs>
<clipPath id="clip0_802_974">
<rect width="120" height="90" fill="white" transform="translate(0.200684 0.508789)"/>
</clipPath>
<clipPath id="clip1_802_974">
<rect width="120" height="90" fill="white" transform="translate(0.200684 0.508789)"/>
</clipPath>
</defs>
</svg>
