<svg width="91" height="91" viewBox="0 0 91 91" fill="none" xmlns="http://www.w3.org/2000/svg">
<path fill-rule="evenodd" clip-rule="evenodd" d="M62.1024 30.6111C63.2309 33.8757 64.0438 37.2085 64.3109 40.663C64.6428 44.9485 64.4909 49.2038 63.5874 53.4191C63.5628 53.5351 63.5108 53.6441 63.4721 53.7566C63.1888 53.7573 62.8998 53.7221 62.6227 53.765C60.282 54.1327 57.9434 54.5138 55.6048 54.8928C53.1875 55.2844 50.7666 55.6606 48.3535 56.079C47.4985 56.2266 46.4403 56.0501 46.0951 57.2328C46.0852 57.2651 45.9868 57.2708 45.9298 57.289L46.0466 50.2219L45.9277 33.1698L47.0541 32.9764C48.8963 32.6748 50.7385 32.3689 52.5821 32.0757C54.7822 31.7262 56.9844 31.3866 59.1859 31.0456C60.1569 30.8944 61.1293 30.7559 62.1024 30.6111Z" fill="#439934"/>
<path fill-rule="evenodd" clip-rule="evenodd" d="M43.6039 77.8905C42.4156 76.8688 41.1859 75.8922 40.0468 74.8178C33.9177 69.0367 29.4345 62.2326 27.2267 54.0292C26.6185 51.7715 26.2128 49.4772 26.0828 47.1442C25.9913 45.5116 25.8592 43.8642 25.9745 42.2399C26.2817 37.9199 26.9061 33.6414 28.1731 29.4803L28.2428 29.3833C28.3658 29.5471 28.543 29.692 28.6056 29.8769C29.8424 33.5191 31.07 37.1641 32.2913 40.8112C36.129 52.2721 39.9617 63.7359 43.8057 75.194C43.881 75.4176 44.0757 75.6011 44.2156 75.8029L43.6039 77.8905Z" fill="#45A538"/>
<path fill-rule="evenodd" clip-rule="evenodd" d="M62.1024 30.611C61.1293 30.7559 60.1562 30.8944 59.1852 31.0442C56.9837 31.3852 54.7815 31.7248 52.5814 32.0742C50.7378 32.3675 48.8956 32.6733 47.0534 32.975L45.927 33.1683L45.9186 32.4335C45.8813 31.8296 45.8173 31.2263 45.8103 30.6223C45.7618 26.7706 45.7316 22.9189 45.6837 19.0671C45.6542 16.6561 45.6099 14.2458 45.5607 11.8355C45.5305 10.3378 45.4981 8.83948 45.4306 7.34394C45.3941 6.54026 45.2647 5.74081 45.212 4.93714C45.1824 4.47519 45.2232 4.00972 45.2323 3.54565C45.8068 4.6587 46.3686 5.78019 46.9592 6.88479C47.8923 8.63136 49.3787 9.91808 50.7167 11.3222C56.0063 16.8713 59.7617 23.3232 62.1024 30.611Z" fill="#46A037"/>
<path fill-rule="evenodd" clip-rule="evenodd" d="M45.9292 57.2884C45.9861 57.2701 46.0853 57.2645 46.0944 57.2321C46.4396 56.0495 47.4978 56.226 48.3528 56.0783C50.766 55.6606 53.1868 55.2838 55.6042 54.8921C57.9428 54.5132 60.2814 54.1321 62.6221 53.7643C62.8991 53.7207 63.1881 53.7566 63.4714 53.7559C63.0341 55.3168 62.6896 56.9115 62.1348 58.4296C61.5048 60.1515 60.7426 61.832 59.9333 63.4794C58.7217 65.9366 57.2222 68.241 55.4663 70.344C54.1171 71.9668 52.6131 73.4666 51.1056 74.9481C50.2724 75.7672 49.2901 76.4345 48.376 77.1707L48.1391 77.0089L47.2855 76.2791L46.4024 74.3434C45.7991 72.0853 45.4701 69.7628 45.4222 67.426L45.4384 67.0316L45.5586 65.3258C45.5987 64.7436 45.6521 64.1621 45.6767 63.5785C45.7674 61.4818 45.8462 59.3851 45.9292 57.2884Z" fill="#409433"/>
<path fill-rule="evenodd" clip-rule="evenodd" d="M45.9292 57.2882C45.8462 59.3849 45.7674 61.4816 45.6781 63.5791C45.6535 64.1627 45.6001 64.7441 45.56 65.3263L45.0221 65.5295C43.8275 62.0125 42.6322 58.5327 41.4629 55.0438C39.5293 49.2719 37.6189 43.4908 35.6881 37.7174C34.1287 33.0574 32.5584 28.4011 30.9772 23.7484C30.9034 23.5305 30.691 23.3603 30.5434 23.1677L33.9859 16.8381C34.104 17.0434 34.2601 17.2354 34.3346 17.4562C35.929 22.1686 37.5152 26.8838 39.0934 31.6016C41.1437 37.7399 43.1813 43.8831 45.2302 50.0221C45.3118 50.2675 45.4468 50.4939 45.5755 50.7688L46.0466 50.2204L45.9292 57.2882Z" fill="#4FAA41"/>
<path fill-rule="evenodd" clip-rule="evenodd" d="M30.5441 23.1682C30.6917 23.3609 30.9034 23.531 30.9779 23.749C32.5591 28.4017 34.1294 33.058 35.6888 37.718C37.6196 43.4913 39.53 49.2724 41.4636 55.0444C42.6322 58.5326 43.8275 62.0131 45.0228 65.5301L45.5607 65.3269L45.4405 67.0327L45.3315 67.4257C45.1445 69.2932 44.987 71.1649 44.7592 73.0282C44.6445 73.962 44.4013 74.8788 44.2163 75.8034C44.0771 75.6016 43.8817 75.4181 43.8064 75.1945C39.9624 63.7357 36.1297 52.2727 32.292 40.8117C31.0711 37.1644 29.8425 33.5196 28.6063 29.8774C28.5437 29.6925 28.3672 29.5477 28.2435 29.3838L30.5441 23.1682Z" fill="#4AA73C"/>
<path fill-rule="evenodd" clip-rule="evenodd" d="M46.0459 50.2209L45.5748 50.7694C45.4461 50.4945 45.3111 50.2673 45.2295 50.0227C43.1813 43.8837 41.143 37.7405 39.0927 31.6022C37.5145 26.8843 35.9283 22.1691 34.3339 17.4567C34.2601 17.2359 34.104 17.0433 33.9852 16.8387L38.2426 11.2383C38.3769 11.4176 38.5681 11.5772 38.6377 11.779C39.8197 15.2391 40.9911 18.7034 42.1555 22.1698C43.2432 25.407 44.3148 28.6491 45.4152 31.882C45.489 32.0986 45.7456 32.2519 45.9172 32.4347L45.9256 33.1695C45.9664 38.8521 46.0065 44.5369 46.0459 50.2209Z" fill="#57AE47"/>
<path fill-rule="evenodd" clip-rule="evenodd" d="M45.9186 32.4336C45.747 32.2508 45.4904 32.0975 45.4166 31.8809C44.3162 28.648 43.2446 25.4059 42.1569 22.1687C40.9925 18.7023 39.8211 15.2387 38.6391 11.7779C38.5695 11.5761 38.3783 11.4165 38.244 11.2372C39.6284 9.88155 40.97 8.47741 42.41 7.18437C43.6904 6.03546 44.7198 4.80358 44.7669 2.98812C44.769 2.91288 44.8084 2.83765 44.8688 2.62671L45.2338 3.54499C45.2246 4.00976 45.1831 4.47452 45.2134 4.93647C45.2661 5.74015 45.3955 6.5396 45.432 7.34327C45.4995 8.83882 45.5319 10.3372 45.5621 11.8348C45.6106 14.2451 45.6549 16.6555 45.6852 19.0665C45.7323 22.9182 45.7632 26.7699 45.8117 30.6216C45.8174 31.227 45.8806 31.8296 45.9186 32.4336Z" fill="#60B24F"/>
<path fill-rule="evenodd" clip-rule="evenodd" d="M44.2149 75.803C44.3999 74.8784 44.6431 73.9608 44.7577 73.0277C44.9863 71.1652 45.1431 69.2927 45.3301 67.4252L45.3765 67.4182L45.4229 67.4259C45.4707 69.7627 45.7998 72.0852 46.4031 74.3433C46.2793 74.5064 46.1042 74.652 46.0388 74.8362C45.5277 76.2776 45.046 77.7302 44.532 79.1716C44.4617 79.3685 44.2663 79.5218 44.1284 79.6948L43.6032 77.8906L44.2149 75.803Z" fill="#A9AA88"/>
<path fill-rule="evenodd" clip-rule="evenodd" d="M44.1292 79.6955C44.267 79.5225 44.4631 79.3692 44.5327 79.1723C45.0467 77.7309 45.5291 76.279 46.0395 74.8369C46.1049 74.6527 46.2793 74.5071 46.4038 74.344L47.2862 76.2804C47.1118 76.5279 46.8713 76.7508 46.7743 77.0264L45.084 81.9898C45.0144 82.1888 44.7767 82.3294 44.6178 82.4974L44.1292 79.6955Z" fill="#B6B598"/>
<path fill-rule="evenodd" clip-rule="evenodd" d="M44.6178 82.4966C44.7774 82.3292 45.0144 82.1879 45.084 81.9889L46.7743 77.0256C46.8706 76.7506 47.1118 76.527 47.2862 76.2795L48.1405 77.0087C47.7277 77.4165 47.4985 77.8876 47.6363 78.4831L47.3769 79.3325C47.2588 79.4781 47.0879 79.6046 47.0295 79.7713C46.4396 81.4609 45.8764 83.1596 45.2823 84.8492C45.207 85.0637 44.9982 85.2317 44.8506 85.4202C44.7739 84.4449 44.6959 83.4718 44.6178 82.4966Z" fill="#C2C1A7"/>
<path fill-rule="evenodd" clip-rule="evenodd" d="M44.8513 85.4202C44.9982 85.231 45.207 85.063 45.283 84.8492C45.8771 83.1603 46.4403 81.4616 47.0302 79.7713C47.0886 79.6053 47.2588 79.4781 47.3776 79.3325L47.0197 83.2313C46.9241 83.3417 46.7856 83.4381 46.7399 83.5667C46.3356 84.7016 45.9545 85.8449 45.5488 86.9797C45.4651 87.2138 45.3048 87.4206 45.1796 87.6392C45.0685 87.4937 44.8695 87.3531 44.8604 87.2012C44.8245 86.6099 44.8491 86.0143 44.8513 85.4202Z" fill="#CECDB7"/>
<path fill-rule="evenodd" clip-rule="evenodd" d="M45.1789 87.6393C45.3041 87.42 45.4644 87.2132 45.5481 86.9798C45.9545 85.8457 46.3349 84.7024 46.7392 83.5668C46.7849 83.4382 46.9241 83.3425 47.019 83.2314L47.0274 85.7908L46.171 87.9874L45.1789 87.6393Z" fill="#DBDAC7"/>
<path fill-rule="evenodd" clip-rule="evenodd" d="M46.171 87.9881L47.0274 85.7915L47.2039 88.3903L46.171 87.9881Z" fill="#EBE9DC"/>
<path fill-rule="evenodd" clip-rule="evenodd" d="M47.6363 78.484C47.4985 77.8884 47.727 77.4166 48.1405 77.0095L48.3774 77.1712L47.6363 78.484Z" fill="#CECDB7"/>
<path fill-rule="evenodd" clip-rule="evenodd" d="M45.4229 67.4267L45.3765 67.419L45.3301 67.426L45.4391 67.033L45.4229 67.4267Z" fill="#4FAA41"/>
</svg>
