<svg width="91" height="91" viewBox="0 0 91 91" fill="none" xmlns="http://www.w3.org/2000/svg">
<path d="M82.9183 69.2795C78.0927 69.148 74.4077 69.5973 71.257 70.9255C70.3619 71.3031 68.9331 71.3136 68.7869 72.4351C69.2791 72.9505 69.3557 73.7211 69.7466 74.3553C70.499 75.5717 71.7688 77.2044 72.9023 78.0594C74.1412 78.9946 75.4173 79.9937 76.7448 80.803C79.1059 82.2423 81.742 83.0649 84.0152 84.5071C85.3553 85.3578 86.6863 86.4287 87.9934 87.3878C88.6403 87.8624 89.0741 88.5999 89.9144 88.8974V88.761C89.4728 88.1985 89.3589 87.4264 88.9539 86.8393L87.1701 85.0555C85.4263 82.7408 83.2122 80.7074 80.8588 79.0192C78.9822 77.672 74.7824 75.8523 73.9998 73.6691L73.8627 73.532C75.193 73.3815 76.7505 72.9006 77.9788 72.5708C80.0418 72.0181 81.8854 72.1609 84.0152 71.611L86.8959 70.7877V70.2392C85.8194 69.1346 85.0516 67.6721 83.878 66.6723C80.8054 64.0567 77.4529 61.4431 74.0005 59.2635C72.0852 58.0555 69.7192 57.2701 67.6893 56.2456C67.0066 55.9004 65.807 55.7211 65.3563 55.1474C64.2897 53.7889 63.7096 52.0663 62.8877 50.4835C61.1657 47.1669 59.4747 43.5451 57.9489 40.0555C56.9083 37.6761 56.2284 35.3305 54.9304 33.1958C48.7007 22.9534 41.9957 16.7722 31.6084 10.6958C29.3978 9.40346 26.7365 8.89369 23.924 8.22573C22.4158 8.13502 20.9062 8.04291 19.3973 7.9508C18.4755 7.5669 17.5178 6.43979 16.6537 5.89276C13.2126 3.71869 4.38555 -1.00982 1.83742 5.20721C0.227967 9.13135 4.24281 12.9592 5.67789 14.9483C6.68617 16.3419 7.9764 17.9064 8.6964 19.475C9.17031 20.5065 9.25187 21.5408 9.65758 22.6313C10.6539 25.3187 11.5223 28.2423 12.8125 30.725C13.4643 31.9822 14.1829 33.3055 15.0077 34.4291C15.5125 35.1189 16.3795 35.4226 16.5159 36.4871C15.6693 37.6726 15.6208 39.5134 15.1448 41.0153C13.0002 47.7758 13.8095 56.1796 16.9286 61.183C17.8848 62.72 20.1398 66.0142 23.2391 64.7499C25.9504 63.646 25.345 60.2232 26.1205 57.204C26.2956 56.5199 26.188 56.0164 26.5319 55.558V55.6951L29.002 60.6339C30.8301 63.5778 34.0729 66.654 36.8221 68.7296C38.2473 69.8061 39.3695 71.6666 41.2124 72.2966V72.1588H41.0753C40.7181 71.6026 40.1591 71.372 39.7035 70.9248C38.6298 69.8722 37.4359 68.5637 36.5486 67.3578C34.0483 63.9638 31.8391 60.2492 29.826 56.3828C28.8641 54.5356 28.0281 52.4994 27.2181 50.6199C26.9059 49.8957 26.9102 48.7996 26.2591 48.4248C25.371 49.8015 24.0639 50.9153 23.3777 52.5409C22.2801 55.1396 22.1387 58.3093 21.7316 61.5957C21.4912 61.6815 21.598 61.6224 21.4567 61.7321C19.5456 61.2716 18.8748 59.3049 18.164 57.6167C16.3682 53.3488 16.0342 46.4778 17.6148 41.5651C18.0241 40.2931 19.8719 36.291 19.1237 35.116C18.7666 33.9446 17.5881 33.2668 16.9293 32.3717C16.113 31.265 15.2987 29.8081 14.7327 28.5299C13.2632 25.2034 12.577 21.4677 11.0294 18.1039C10.289 16.4959 9.03812 14.8681 8.01086 13.4394C6.87391 11.8553 5.59984 10.6888 4.71812 8.77416C4.40453 8.09354 3.97914 7.00369 4.4432 6.30408C4.59086 5.83229 4.80039 5.63541 5.26656 5.48143C6.0625 4.8676 8.27875 5.68533 9.10703 6.02916C11.3071 6.94323 13.1437 7.81369 15.0077 9.04838C15.9013 9.64182 16.807 10.7886 17.8884 11.1064H19.123C21.0545 11.5501 23.218 11.2435 25.023 11.792C28.2123 12.7609 31.0705 14.2691 33.6658 15.9081C41.5731 20.9017 48.0391 28.0089 52.4617 36.4878C53.1733 37.8533 53.4812 39.1555 54.1077 40.6039C55.372 43.524 56.9645 46.5285 58.2224 49.3846C59.4782 52.2336 60.7016 55.1087 62.4763 57.4796C63.4094 58.7256 67.0122 59.3942 68.6505 60.0868C69.798 60.5713 71.6788 61.0775 72.7666 61.7321C74.8429 62.9851 76.8552 64.4764 78.8036 65.8489C79.776 66.5345 82.7692 68.0399 82.9183 69.2795V69.2795ZM21.5924 17.0085C20.5862 16.9895 19.8747 17.1181 19.1223 17.282V17.4191H19.2595C19.7397 18.4049 20.587 19.0405 21.1797 19.8892C21.6367 20.8503 22.0945 21.8101 22.5522 22.7699L22.6886 22.6342C23.5387 22.0344 23.9275 21.0774 23.9226 19.6149C23.5823 19.2571 23.5323 18.8085 23.237 18.381C22.8461 17.8107 22.0874 17.4866 21.5924 17.0085Z" fill="#00618A"/>
</svg>
