<svg width="101" height="101" viewBox="0 0 101 101" fill="none" xmlns="http://www.w3.org/2000/svg">
<path d="M50.2134 10.0775C46.915 10.0932 43.7666 10.3736 40.9947 10.8642C32.8306 12.3064 31.3494 15.3252 31.3494 20.8931V28.2455H50.6408V30.6963H24.1088C18.5025 30.6963 13.5931 34.0658 12.0572 40.4783C10.2853 47.826 10.2072 52.4119 12.0572 60.0846C13.4283 65.7963 16.7033 69.865 22.3103 69.865H28.9439V61.051C28.9439 54.683 34.4525 49.0666 40.9955 49.0666H60.265C65.6291 49.0666 69.9103 44.6494 69.9103 39.2635V20.8939C69.9103 15.665 65.4994 11.7377 60.265 10.865C56.9494 10.3135 53.5111 10.0627 50.2134 10.0775ZM39.7806 15.9908C41.7728 15.9908 43.4009 17.6447 43.4009 19.6791C43.4009 21.7049 41.7736 23.3431 39.7806 23.3431C37.7806 23.3431 36.1611 21.7049 36.1611 19.6791C36.1603 17.6447 37.7806 15.9908 39.7806 15.9908Z" fill="url(#paint0_linear_802_987)"/>
<path d="M72.3158 30.6963V39.2635C72.3158 45.9042 66.6845 51.494 60.2642 51.494H40.9947C35.7166 51.494 31.3494 56.012 31.3494 61.2979V79.669C31.3494 84.8963 35.8947 87.9721 40.9947 89.4713C47.1009 91.2659 52.9572 91.5909 60.2642 89.4713C65.1205 88.0643 69.9095 85.2346 69.9095 79.669V72.3159H50.6408V69.8643H79.5564C85.1627 69.8643 87.2533 65.9542 89.2033 60.0838C91.2173 54.0409 91.1306 48.2292 89.2033 40.4776C87.8173 34.8956 85.1713 30.6956 79.5564 30.6956H72.3158V30.6963ZM61.4775 77.2174C63.4783 77.2174 65.0978 78.8557 65.0978 80.8831C65.0978 82.9159 63.4775 84.5698 61.4775 84.5698C59.4853 84.5698 57.858 82.9159 57.858 80.8831C57.858 78.8557 59.4853 77.2174 61.4775 77.2174Z" fill="url(#paint1_linear_802_987)"/>
<path opacity="0.444" d="M76.7119 93.9439C76.7119 96.7119 65.1369 98.9564 50.8595 98.9564C36.5814 98.9564 25.0064 96.7119 25.0064 93.9439C25.0064 91.1752 36.5806 88.9307 50.8595 88.9307C65.1369 88.9307 76.7119 91.1744 76.7119 93.9439Z" fill="url(#paint2_radial_802_987)"/>
<defs>
<linearGradient id="paint0_linear_802_987" x1="8.76491" y1="12.3765" x2="53.26" y2="50.3217" gradientUnits="userSpaceOnUse">
<stop stop-color="#5A9FD4"/>
<stop offset="1" stop-color="#306998"/>
</linearGradient>
<linearGradient id="paint1_linear_802_987" x1="70.0008" y1="73.9091" x2="54.0442" y2="51.5325" gradientUnits="userSpaceOnUse">
<stop stop-color="#FFD43B"/>
<stop offset="1" stop-color="#FFE873"/>
</linearGradient>
<radialGradient id="paint2_radial_802_987" cx="0" cy="0" r="1" gradientUnits="userSpaceOnUse" gradientTransform="translate(50.755 93.8004) rotate(-90) scale(5.01431 22.0421)">
<stop stop-color="#B8B8B8" stop-opacity="0.498"/>
<stop offset="1" stop-color="#7F7F7F" stop-opacity="0"/>
</radialGradient>
</defs>
</svg>
