<svg width="91" height="91" viewBox="0 0 91 91" fill="none" xmlns="http://www.w3.org/2000/svg">
<path d="M45.1694 53.5244C49.5963 53.5244 53.1851 49.9357 53.1851 45.5088C53.1851 41.0819 49.5963 37.4932 45.1694 37.4932C40.7425 37.4932 37.1538 41.0819 37.1538 45.5088C37.1538 49.9357 40.7425 53.5244 45.1694 53.5244Z" fill="#61DAFB"/>
<path d="M75.6148 32.29C74.0679 31.7275 72.4507 31.165 70.7632 30.6729C71.1851 28.9854 71.5367 27.2979 71.8179 25.6807C73.2945 16.3994 71.6773 9.86035 67.1773 7.3291C65.8413 6.55566 64.3648 6.2041 62.6773 6.2041C57.7554 6.2041 51.4976 9.86035 45.1695 15.9775C38.8413 9.86035 32.5835 6.2041 27.6616 6.2041C25.9741 6.2041 24.4976 6.55566 23.1617 7.3291C18.6617 9.93066 17.0445 16.4697 18.521 25.6807C18.8023 27.2979 19.1538 28.9854 19.5757 30.6729C17.8882 31.165 16.271 31.6572 14.7242 32.29C5.93509 35.665 1.15384 40.3057 1.15384 45.5088C1.15384 50.7119 6.0054 55.3525 14.7242 58.7275C16.271 59.29 17.8882 59.8525 19.5757 60.3447C19.1538 62.0322 18.8023 63.7197 18.521 65.3369C17.0445 74.6182 18.6617 81.1572 23.1617 83.6885C24.4976 84.4619 25.9741 84.8135 27.6616 84.8135C32.6538 84.8135 38.9117 81.1572 45.1695 75.04C51.4976 81.1572 57.7554 84.8135 62.6773 84.8135C64.3648 84.8135 65.8413 84.4619 67.1773 83.6885C71.6773 81.0869 73.2945 74.5479 71.8179 65.3369C71.5367 63.7197 71.1851 62.0322 70.7632 60.3447C72.4507 59.8525 74.0679 59.3604 75.6148 58.7275C84.4038 55.3525 89.1851 50.7119 89.1851 45.5088C89.1851 40.3057 84.4038 35.665 75.6148 32.29V32.29ZM65.2085 10.8447C68.0913 12.5322 69.0757 17.7354 67.8804 25.1182C67.6695 26.5947 67.3179 28.1416 66.896 29.7588C63.2398 28.915 59.3726 28.3525 55.2945 28.001C52.9038 24.626 50.4429 21.6025 47.982 18.8604C53.1851 13.7275 58.4585 10.2119 62.7476 10.2119C63.6617 10.2119 64.5054 10.4229 65.2085 10.8447V10.8447ZM57.3335 52.54C56.0679 54.79 54.5913 57.04 53.0445 59.29C50.4429 59.501 47.8413 59.5713 45.1695 59.5713C42.4273 59.5713 39.8257 59.501 37.2945 59.29C35.7476 57.04 34.3413 54.79 33.0757 52.54C31.7398 50.2197 30.4742 47.8291 29.3492 45.5088C30.4742 43.1885 31.7398 40.7979 33.0757 38.4775C34.3413 36.2275 35.8179 33.9775 37.3648 31.7275C39.9663 31.5166 42.5679 31.4463 45.2398 31.4463C47.982 31.4463 50.5835 31.5166 53.1148 31.7275C54.6617 33.9775 56.0679 36.2275 57.3335 38.4775C58.6695 40.7979 59.9351 43.1885 61.0601 45.5088C59.8648 47.8291 58.6695 50.1494 57.3335 52.54ZM63.1695 50.2197C64.2241 52.6807 65.0679 55.0713 65.8413 57.4619C63.4507 58.0244 60.9195 58.4463 58.2476 58.7979C59.0913 57.4619 60.0054 56.0557 60.7788 54.5791C61.6226 53.1025 62.396 51.626 63.1695 50.2197ZM45.1695 69.2744C43.482 67.4463 41.8648 65.4775 40.3179 63.4385C41.9351 63.5088 43.5523 63.5791 45.1695 63.5791C46.7867 63.5791 48.4038 63.5088 50.021 63.4385C48.4742 65.4775 46.857 67.4463 45.1695 69.2744ZM32.0913 58.7275C29.4195 58.376 26.8882 57.9541 24.4976 57.3916C25.271 55.0713 26.1148 52.6104 27.1695 50.1494C27.9429 51.5557 28.7163 53.0322 29.5601 54.4385C30.4038 55.9854 31.2476 57.3213 32.0913 58.7275V58.7275ZM27.1695 40.7978C26.1148 38.3369 25.271 35.9463 24.4976 33.5557C26.8882 32.9932 29.4195 32.5713 32.0913 32.2197C31.2476 33.5557 30.3335 34.9619 29.5601 36.4385C28.7163 37.915 27.9429 39.3916 27.1695 40.7978V40.7978ZM45.1695 21.7432C46.857 23.5713 48.4742 25.54 50.021 27.5791C48.4038 27.5088 46.7867 27.4385 45.1695 27.4385C43.5523 27.4385 41.9351 27.5088 40.3179 27.5791C41.8648 25.54 43.482 23.5713 45.1695 21.7432ZM60.7788 36.5088L58.2476 32.29C60.9195 32.6416 63.4507 33.0635 65.8413 33.626C65.0679 35.9463 64.2241 38.4072 63.1695 40.8682C62.396 39.3916 61.6226 37.915 60.7788 36.5088ZM22.4585 25.1182C21.2632 17.7354 22.2476 12.5322 25.1304 10.8447C25.8335 10.4229 26.6773 10.2119 27.5913 10.2119C31.8101 10.2119 37.0835 13.6572 42.357 18.8604C39.896 21.5322 37.4351 24.626 35.0445 28.001C30.9663 28.3525 27.0992 28.9854 23.4429 29.7588C23.021 28.1416 22.7398 26.5947 22.4585 25.1182V25.1182ZM5.09134 45.5088C5.09134 42.2041 9.09915 38.6885 16.1304 36.0869C17.5367 35.5244 19.0835 35.0322 20.6304 34.6104C21.7554 38.126 23.1616 41.8525 24.8491 45.5791C23.1616 49.3057 21.6851 52.9619 20.6304 56.4775C10.9273 53.665 5.09134 49.4463 5.09134 45.5088ZM25.1304 80.1729C22.2476 78.4854 21.2632 73.2822 22.4585 65.8994C22.6695 64.4229 23.021 62.876 23.4429 61.2588C27.0992 62.1025 30.9663 62.665 35.0445 63.0166C37.4351 66.3916 39.896 69.415 42.357 72.1572C37.1538 77.29 31.8804 80.8057 27.5913 80.8057C26.6773 80.8057 25.8335 80.5947 25.1304 80.1729ZM67.8804 65.8994C69.0757 73.2822 68.0913 78.4854 65.2085 80.1729C64.5054 80.5947 63.6617 80.8057 62.7476 80.8057C58.5288 80.8057 53.2554 77.3604 47.982 72.1572C50.4429 69.4854 52.9038 66.3916 55.2945 63.0166C59.3726 62.665 63.2398 62.0322 66.896 61.2588C67.3179 62.876 67.5992 64.4229 67.8804 65.8994V65.8994ZM74.2085 54.9307C72.8023 55.4932 71.2554 55.9854 69.7085 56.4072C68.5835 52.8916 67.1773 49.165 65.4898 45.4385C67.1773 41.7119 68.6538 38.0557 69.7085 34.54C79.4117 37.3525 85.2476 41.5713 85.2476 45.5088C85.2476 48.8135 81.1695 52.3291 74.2085 54.9307Z" fill="#61DAFB"/>
</svg>
