<svg width="1515" height="768" viewBox="0 0 1515 768" fill="none" xmlns="http://www.w3.org/2000/svg">
<g opacity="0.8">
<mask id="mask0_1002_1406" style="mask-type:alpha" maskUnits="userSpaceOnUse" x="374" y="0" width="768" height="768">
<rect width="768" height="768" transform="translate(374)" fill="url(#paint0_radial_1002_1406)"/>
</mask>
<g mask="url(#mask0_1002_1406)">
<g clip-path="url(#clip0_1002_1406)">
<g opacity="0.5">
<g clip-path="url(#clip1_1002_1406)">
<line x1="374.3" x2="374.3" y2="768" stroke="#0BCACA" stroke-opacity="0.4" stroke-width="0.6"/>
<line x1="422.3" x2="422.3" y2="768" stroke="#0BCACA" stroke-opacity="0.4" stroke-width="0.6"/>
<line x1="470.3" x2="470.3" y2="768" stroke="#0BCACA" stroke-opacity="0.4" stroke-width="0.6"/>
<line x1="518.3" x2="518.3" y2="768" stroke="#0BCACA" stroke-opacity="0.4" stroke-width="0.6"/>
<line x1="566.3" x2="566.3" y2="768" stroke="#0BCACA" stroke-opacity="0.4" stroke-width="0.6"/>
<line x1="614.3" x2="614.3" y2="768" stroke="#0BCACA" stroke-opacity="0.4" stroke-width="0.6"/>
<line x1="662.3" x2="662.3" y2="768" stroke="#0BCACA" stroke-opacity="0.4" stroke-width="0.6"/>
<line x1="710.3" x2="710.3" y2="768" stroke="#0BCACA" stroke-opacity="0.4" stroke-width="0.6"/>
<line x1="758.3" x2="758.3" y2="768" stroke="#0BCACA" stroke-opacity="0.4" stroke-width="0.6"/>
<line x1="806.3" x2="806.3" y2="768" stroke="#0BCACA" stroke-opacity="0.4" stroke-width="0.6"/>
<line x1="854.3" x2="854.3" y2="768" stroke="#0BCACA" stroke-opacity="0.4" stroke-width="0.6"/>
<line x1="902.3" x2="902.3" y2="768" stroke="#0BCACA" stroke-opacity="0.4" stroke-width="0.6"/>
<line x1="950.3" x2="950.3" y2="768" stroke="#0BCACA" stroke-opacity="0.4" stroke-width="0.6"/>
<line x1="998.3" x2="998.3" y2="768" stroke="#0BCACA" stroke-opacity="0.4" stroke-width="0.6"/>
<line x1="1046.3" x2="1046.3" y2="768" stroke="#0BCACA" stroke-opacity="0.4" stroke-width="0.6"/>
<line x1="1094.3" x2="1094.3" y2="768" stroke="#0BCACA" stroke-opacity="0.4" stroke-width="0.6"/>
</g>
<rect x="374.5" y="0.5" width="767" height="767" stroke="#1F242F"/>
</g>
<g opacity="0.5">
<g clip-path="url(#clip2_1002_1406)">
<line x1="374" y1="47.7" x2="1142" y2="47.7" stroke="#0BCACA" stroke-opacity="0.4" stroke-width="0.6"/>
<line x1="374" y1="95.7" x2="1142" y2="95.7" stroke="#0BCACA" stroke-opacity="0.4" stroke-width="0.6"/>
<line x1="374" y1="143.7" x2="1142" y2="143.7" stroke="#0BCACA" stroke-opacity="0.4" stroke-width="0.6"/>
<line x1="374" y1="191.7" x2="1142" y2="191.7" stroke="#0BCACA" stroke-opacity="0.4" stroke-width="0.6"/>
<line x1="374" y1="239.7" x2="1142" y2="239.7" stroke="#0BCACA" stroke-opacity="0.4" stroke-width="0.6"/>
<line x1="374" y1="287.7" x2="1142" y2="287.7" stroke="#0BCACA" stroke-opacity="0.4" stroke-width="0.6"/>
<line x1="374" y1="335.7" x2="1142" y2="335.7" stroke="#0BCACA" stroke-opacity="0.4" stroke-width="0.6"/>
<line x1="374" y1="383.7" x2="1142" y2="383.7" stroke="#0BCACA" stroke-opacity="0.4" stroke-width="0.6"/>
<line x1="374" y1="431.7" x2="1142" y2="431.7" stroke="#0BCACA" stroke-opacity="0.4" stroke-width="0.6"/>
<line x1="374" y1="479.7" x2="1142" y2="479.7" stroke="#0BCACA" stroke-opacity="0.4" stroke-width="0.6"/>
<line x1="374" y1="527.7" x2="1142" y2="527.7" stroke="#0BCACA" stroke-opacity="0.4" stroke-width="0.6"/>
<line x1="374" y1="575.7" x2="1142" y2="575.7" stroke="#0BCACA" stroke-opacity="0.4" stroke-width="0.6"/>
<line x1="374" y1="623.7" x2="1142" y2="623.7" stroke="#0BCACA" stroke-opacity="0.4" stroke-width="0.6"/>
<line x1="374" y1="671.7" x2="1142" y2="671.7" stroke="#0BCACA" stroke-opacity="0.4" stroke-width="0.6"/>
<line x1="374" y1="719.7" x2="1142" y2="719.7" stroke="#0BCACA" stroke-opacity="0.4" stroke-width="0.6"/>
<line x1="374" y1="767.7" x2="1142" y2="767.7" stroke="#0BCACA" stroke-opacity="0.4" stroke-width="0.6"/>
</g>
<rect x="374.5" y="0.5" width="767" height="767" stroke="#1F242F"/>
</g>
</g>
<path d="M758 276L758 300" stroke="url(#paint1_linear_1002_1406)"/>
<path d="M770 288L746 288" stroke="url(#paint2_linear_1002_1406)"/>
<path d="M614 376L614 392" stroke="url(#paint3_linear_1002_1406)"/>
<path d="M626 384L602 384" stroke="url(#paint4_linear_1002_1406)"/>
<path d="M999 518L999 536" stroke="url(#paint5_linear_1002_1406)"/>
<path d="M1008 527L990 527" stroke="url(#paint6_linear_1002_1406)"/>
<path d="M950 376L950 392" stroke="url(#paint7_linear_1002_1406)"/>
<path d="M958 384L942 384" stroke="url(#paint8_linear_1002_1406)"/>
<path d="M567 471L567 489" stroke="url(#paint9_linear_1002_1406)"/>
<path d="M576 480L558 480" stroke="url(#paint10_linear_1002_1406)"/>
<path d="M951 228L951 252" stroke="url(#paint11_linear_1002_1406)"/>
<path d="M963 240L939 240" stroke="url(#paint12_linear_1002_1406)"/>
<path d="M854 323L854 347" stroke="url(#paint13_linear_1002_1406)"/>
<path d="M866 335L842 335" stroke="url(#paint14_linear_1002_1406)"/>
<circle cx="662" cy="336" r="2" fill="#0BCACA" fill-opacity="0.4"/>
<circle cx="854" cy="240" r="2" fill="#0BCACA" fill-opacity="0.4"/>
<circle cx="903" cy="432" r="2" fill="#0BCACA" fill-opacity="0.4"/>
<circle cx="518" cy="384" r="2" fill="#0BCACA" fill-opacity="0.4"/>
<rect x="902" y="288" width="49" height="48" fill="#0BCACA" fill-opacity="0.15"/>
<rect x="470" y="432" width="49" height="48" fill="#0BCACA" fill-opacity="0.15"/>
<rect x="999" y="432" width="49" height="48" fill="#0BCACA" fill-opacity="0.15"/>
</g>
</g>
<defs>
<radialGradient id="paint0_radial_1002_1406" cx="0" cy="0" r="1" gradientUnits="userSpaceOnUse" gradientTransform="translate(384 384) rotate(90) scale(384 384)">
<stop/>
<stop offset="1" stop-opacity="0"/>
</radialGradient>
<linearGradient id="paint1_linear_1002_1406" x1="758" y1="300" x2="758" y2="276" gradientUnits="userSpaceOnUse">
<stop stop-color="white" stop-opacity="0"/>
<stop offset="0.50284" stop-color="white"/>
<stop offset="1" stop-color="white" stop-opacity="0"/>
</linearGradient>
<linearGradient id="paint2_linear_1002_1406" x1="746" y1="288" x2="770" y2="288" gradientUnits="userSpaceOnUse">
<stop stop-color="white" stop-opacity="0"/>
<stop offset="0.50284" stop-color="white"/>
<stop offset="1" stop-color="white" stop-opacity="0"/>
</linearGradient>
<linearGradient id="paint3_linear_1002_1406" x1="614" y1="392" x2="614" y2="376" gradientUnits="userSpaceOnUse">
<stop stop-color="white" stop-opacity="0"/>
<stop offset="0.50284" stop-color="white"/>
<stop offset="1" stop-color="white" stop-opacity="0"/>
</linearGradient>
<linearGradient id="paint4_linear_1002_1406" x1="602" y1="384" x2="626" y2="384" gradientUnits="userSpaceOnUse">
<stop stop-color="white" stop-opacity="0"/>
<stop offset="0.50284" stop-color="white"/>
<stop offset="1" stop-color="white" stop-opacity="0"/>
</linearGradient>
<linearGradient id="paint5_linear_1002_1406" x1="999" y1="536" x2="999" y2="518" gradientUnits="userSpaceOnUse">
<stop stop-color="white" stop-opacity="0"/>
<stop offset="0.50284" stop-color="white"/>
<stop offset="1" stop-color="white" stop-opacity="0"/>
</linearGradient>
<linearGradient id="paint6_linear_1002_1406" x1="990" y1="527" x2="1008" y2="527" gradientUnits="userSpaceOnUse">
<stop stop-color="white" stop-opacity="0"/>
<stop offset="0.50284" stop-color="white"/>
<stop offset="1" stop-color="white" stop-opacity="0"/>
</linearGradient>
<linearGradient id="paint7_linear_1002_1406" x1="950" y1="392" x2="950" y2="376" gradientUnits="userSpaceOnUse">
<stop stop-color="white" stop-opacity="0"/>
<stop offset="0.50284" stop-color="white"/>
<stop offset="1" stop-color="white" stop-opacity="0"/>
</linearGradient>
<linearGradient id="paint8_linear_1002_1406" x1="942" y1="384" x2="958" y2="384" gradientUnits="userSpaceOnUse">
<stop stop-color="white" stop-opacity="0"/>
<stop offset="0.50284" stop-color="white"/>
<stop offset="1" stop-color="white" stop-opacity="0"/>
</linearGradient>
<linearGradient id="paint9_linear_1002_1406" x1="567" y1="489" x2="567" y2="471" gradientUnits="userSpaceOnUse">
<stop stop-color="white" stop-opacity="0"/>
<stop offset="0.50284" stop-color="white"/>
<stop offset="1" stop-color="white" stop-opacity="0"/>
</linearGradient>
<linearGradient id="paint10_linear_1002_1406" x1="558" y1="480" x2="576" y2="480" gradientUnits="userSpaceOnUse">
<stop stop-color="white" stop-opacity="0"/>
<stop offset="0.50284" stop-color="white"/>
<stop offset="1" stop-color="white" stop-opacity="0"/>
</linearGradient>
<linearGradient id="paint11_linear_1002_1406" x1="951" y1="252" x2="951" y2="228" gradientUnits="userSpaceOnUse">
<stop stop-color="white" stop-opacity="0"/>
<stop offset="0.50284" stop-color="white"/>
<stop offset="1" stop-color="white" stop-opacity="0"/>
</linearGradient>
<linearGradient id="paint12_linear_1002_1406" x1="939" y1="240" x2="963" y2="240" gradientUnits="userSpaceOnUse">
<stop stop-color="white" stop-opacity="0"/>
<stop offset="0.50284" stop-color="white"/>
<stop offset="1" stop-color="white" stop-opacity="0"/>
</linearGradient>
<linearGradient id="paint13_linear_1002_1406" x1="854" y1="347" x2="854" y2="323" gradientUnits="userSpaceOnUse">
<stop stop-color="white" stop-opacity="0"/>
<stop offset="0.50284" stop-color="white"/>
<stop offset="1" stop-color="white" stop-opacity="0"/>
</linearGradient>
<linearGradient id="paint14_linear_1002_1406" x1="842" y1="335" x2="866" y2="335" gradientUnits="userSpaceOnUse">
<stop stop-color="white" stop-opacity="0"/>
<stop offset="0.50284" stop-color="white"/>
<stop offset="1" stop-color="white" stop-opacity="0"/>
</linearGradient>
<clipPath id="clip0_1002_1406">
<rect width="768" height="768" fill="white" transform="translate(374)"/>
</clipPath>
<clipPath id="clip1_1002_1406">
<rect x="374" width="768" height="768" fill="white"/>
</clipPath>
<clipPath id="clip2_1002_1406">
<rect x="374" width="768" height="768" fill="white"/>
</clipPath>
</defs>
</svg>
